<?xml version="1.0" encoding="UTF-8"?>
<svg xmlns="http://www.w3.org/2000/svg" xmlns:xlink="http://www.w3.org/1999/xlink" version="1.1" viewBox="0 0 113.3857 56.6924">
  <defs>
    <clipPath id="clippath">
      <rect x="42.0086" y="7.0864" width="29.3685" height="42.5196" fill="none"/>
    </clipPath>
  </defs>
  <!-- Generator: Adobe Illustrator 28.7.1, SVG Export Plug-In . SVG Version: 1.2.0 Build 142)  -->
  <g>
    <g id="Capa_1">
      <g clip-path="url(#clippath)">
        <path d="M46.8161,45.5311c-1.118-.7691-1.7207-1.1799-2.2858-1.5997-.2724.4489-.4287.9763-.4287,1.5398,0,1.0225.5153,1.9239,1.3002,2.4598.327-.6444.7666-1.3625,1.4143-2.3999" fill="#222221"/>
        <path d="M49.744,46.1249c-.4606.4886-1.1977.5603-1.726.2275-.1016-.0639-.8289-.5654-.8289-.5654-.8035,1.1345-1.2164,1.7049-1.66,2.2266.4513.2757.9819.4348,1.5494.4348,1.5965,0,2.899-1.2565,2.9739-2.8343-.0647.1899-.1708.3663-.3084.5108" fill="#222221"/>
        <path d="M49.1938,44.4478c-.0992-.0651-.7371-.4897-.7371-.4897-.5229.7707-.6051.884-1.0046,1.4563,0,0,.6946.4498.7949.5113.3595.2218.8363.1554,1.1164-.1563.1077-.1198.1842-.2683.2137-.425.0555-.2894-.0368-.6686-.3833-.8966" fill="#222221"/>
        <path d="M47.0505,45.1557c.3777-.6019.7185-1.1378,1.2552-1.9482,0,0,1.1253.742,1.2253.8137.1186.0841.2044.1687.2728.2501-.4615-1.0463-1.5078-1.7778-2.725-1.7778-.9702,0-1.832.4647-2.3756,1.1832.5995.3554,1.3155.816,2.3473,1.479" fill="#222221"/>
        <path d="M44.2636,43.3273c.0008-.2072-.1667-.376-.374-.3768-.2072-.0004-.376.1667-.3768.374-.0008.2077.1667.3764.374.3768.2076.0009.376-.1667.3768-.374" fill="#222221"/>
        <path d="M44.5269,42.233l.1769-.1263c.1045-.0745.2129-.0623.2777.0283l.0012.0012c.0716.1004.0283.2109-.07.2814l-.0895.0635.1032.1445-.0789.0563-.3206-.4489ZM44.8641,42.3447c.0595-.0425.0733-.1024.0397-.1494l-.0012-.0012c-.0373-.0526-.0948-.053-.1538-.0109l-.0915.0656.1153.1615.0915-.0656Z" fill="#222221"/>
        <path d="M45.2604,42.0758l-.0005-.0016c-.0627-.1421-.0056-.3093.149-.3777.155-.0688.3149.0012.3781.1429l.0004.0016c.0627.1421.0056.3093-.1494.3777s-.3149-.0013-.3776-.1429M45.6951,41.8835l-.0008-.0016c-.0433-.098-.1506-.1477-.2506-.1036-.1004.0445-.1348.1554-.0915.2534l.0004.0012c.0434.0984.1506.1481.251.104.1004-.0445.1348-.1554.0915-.2534" fill="#222221"/>
        <polygon points="46.0218 41.4882 46.1165 41.4675 46.2157 41.9201 46.499 41.8577 46.5176 41.944 46.14 42.0269 46.0218 41.4882" fill="#222221"/>
        <polygon points="46.8014 41.699 46.563 41.3784 46.6772 41.3719 46.8459 41.6063 46.9872 41.3533 47.0977 41.3468 46.899 41.6909 46.9119 41.9103 46.8144 41.9164 46.8014 41.699" fill="#222221"/>
        <polygon points="47.4933 41.4667 47.3196 41.4464 47.3298 41.3574 47.7742 41.4088 47.7641 41.4982 47.5904 41.4776 47.5374 41.9366 47.4403 41.9253 47.4933 41.4667" fill="#222221"/>
        <polygon points="48.1032 41.4804 48.4942 41.6007 48.4687 41.6832 48.1703 41.5918 48.1282 41.729 48.3926 41.8099 48.3675 41.8929 48.1032 41.8116 48.0594 41.9532 48.3614 42.0459 48.3363 42.1289 47.9412 42.0079 48.1032 41.4804" fill="#222221"/>
        <path d="M48.6851,41.9762l.0008-.0012c.0745-.138.2384-.1955.3858-.1162.0894.0482.1267.1085.1489.1781l-.0886.0336c-.0194-.057-.0478-.104-.1032-.1336-.0931-.0501-.2016-.0101-.2526.0847l-.0008.0016c-.0514.0951-.0259.2088.0672.259.0595.032.1105.0284.1732.0122l.0251.085c-.0793.0251-.1526.0287-.2437-.0203-.1412-.0765-.187-.2436-.1121-.3829" fill="#222221"/>
        <polygon points="49.5443 42.1676 49.6184 42.23 49.4711 42.4056 49.6731 42.5748 49.8204 42.3988 49.8949 42.4611 49.5403 42.8841 49.4662 42.8217 49.6156 42.6436 49.4136 42.4745 49.2642 42.653 49.1902 42.5906 49.5443 42.1676" fill="#222221"/>
        <polygon points="50.1883 42.7654 50.2433 42.8366 50.1227 43.3034 50.4242 43.0698 50.4825 43.1455 50.0466 43.4827 49.9968 43.4187 50.1211 42.9382 49.8106 43.1783 49.7523 43.103 50.1883 42.7654" fill="#222221"/>
        <polygon points="50.6733 43.4649 50.7199 43.5499 50.2353 43.8139 50.1892 43.7284 50.6733 43.4649" fill="#222221"/>
        <path d="M50.5459,44.4589c-.0462-.0328-.0826-.0806-.1037-.1417-.055-.1599.0284-.3137.1749-.3639l.0016-.0008c.147-.0502.3089.0206.3635.1809.0555.1603-.0279.3137-.1749.3643l-.0012.0004c-.0591.0203-.1214.0207-.1785.002l-.0303.077-.0858-.0361.0344-.0821ZM50.5831,44.3706l.0453-.1157.0874.036-.0509.1182c.0336.0085.07.0061.1068-.0069h.0012c.1016-.0352.1603-.1376.1247-.2412-.0356-.1037-.1429-.1474-.2445-.1126l-.0012.0004c-.1016.0348-.1603.1372-.1247.2413.0114.034.0316.0615.0559.0805" fill="#222221"/>
        <path d="M50.8252,44.7948l.3153-.0372.0114.0964-.3117.0368c-.1016.0117-.1502.0708-.1401.157.0101.085.068.1316.1688.1194l.3153-.0368.0114.0963-.3109.0365c-.1631.019-.2562-.0636-.2732-.2065-.0166-.1424.0546-.2428.2137-.2619" fill="#222221"/>
        <polygon points="51.1988 45.5995 51.1672 46.0075 51.081 46.0006 51.1048 45.6893 50.962 45.6784 50.9405 45.9541 50.8543 45.9476 50.8753 45.6719 50.7276 45.6606 50.7037 45.9755 50.6171 45.969 50.6487 45.557 51.1988 45.5995" fill="#222221"/>
        <rect x="44.5771" y="48.5552" width=".5514" height=".0971" transform="translate(-20.7569 56.9383) rotate(-54.538)" fill="#222221"/>
        <polygon points="44.3264 48.5445 44.2633 48.4806 44.3252 48.0026 44.0548 48.2713 43.9876 48.2037 44.3787 47.8152 44.4361 47.8726 44.3722 48.3648 44.6507 48.088 44.7179 48.156 44.3264 48.5445" fill="#222221"/>
        <path d="M44.156,47.6641l-.0899-.0105c.0089-.0692.0017-.1275-.036-.185-.0332-.0498-.0769-.0664-.1117-.0433l-.0012.0008c-.0328.0219-.0385.0518-.002.1506.0408.1133.0481.1878-.0365.2437l-.0012.0008c-.0793.0522-.1769.0222-.2372-.0692-.0441-.0672-.0591-.134-.0522-.2053l.0899.0029c-.0037.0619.0072.1145.0348.1562.0311.0474.0736.0591.104.0393l.0012-.0008c.0356-.0235.0377-.0551.0004-.1571-.0405-.1129-.0388-.1866.0377-.2368l.0012-.0008c.0862-.0567.1821-.0231.2461.0737.0461.0704.0655.153.0526.2408" fill="#222221"/>
        <polygon points="43.3993 47.1105 43.4685 47.2712 43.3859 47.3068 43.209 46.8955 43.2916 46.8599 43.3608 47.0206 43.785 46.8385 43.8235 46.9283 43.3993 47.1105" fill="#222221"/>
        <rect x="43.0959" y="46.4295" width=".5519" height=".0971" transform="translate(-10.7009 13.0496) rotate(-15.2551)" fill="#222221"/>
        <polygon points="43.0882 46.0162 43.11 46.1898 43.0206 46.2008 42.9655 45.7567 43.0546 45.7454 43.076 45.919 43.5342 45.8619 43.5464 45.9587 43.0882 46.0162" fill="#222221"/>
        <path d="M43.2716,45.4593l-.317-.0202.0065-.0967.3129.0202c.1024.0065.1607-.0425.1659-.1295.0057-.0854-.0429-.1413-.144-.1482l-.317-.0202.0061-.0968.3121.0203c.1643.0105.2412.1085.2319.2526-.0093.1429-.0975.2291-.2574.2185" fill="#222221"/>
        <polygon points="43.1677 44.5066 43.1235 44.6758 43.0369 44.6532 43.1494 44.2201 43.2361 44.2427 43.1923 44.4119 43.6392 44.5281 43.6145 44.6224 43.1677 44.5066" fill="#222221"/>
        <path d="M45.8499,48.8108l.213.0604c.221.0631.2999.2031.2533.3675l-.0004.0016c-.0469.1643-.1926.2489-.4173.185l-.2064-.0587.1578-.5558ZM45.9548,49.2662c.085.0243.1497.0049.1724-.0753l.0004-.0016c.0231-.0801-.0218-.1307-.1068-.155l-.0312-.0089-.0656.2319.0308.0089Z" fill="#222221"/>
        <polygon points="46.6676 49.0045 47.1598 49.0288 47.1521 49.1871 46.8494 49.1721 46.8465 49.2308 47.1287 49.2446 47.1222 49.3838 46.8396 49.3701 46.8368 49.4328 47.1436 49.4478 47.1359 49.606 46.6393 49.5818 46.6676 49.0045" fill="#222221"/>
        <path d="M47.8895,48.9388l.2489-.0761c.1465-.0445.2672-.0097.3068.121l.0008.002c.0405.1332-.0396.2352-.1886.281l-.0603.0182.0461.1501-.1845.0563-.1692-.5525ZM48.2068,49.1379c.0474-.0145.0725-.0453.0603-.085l-.0004-.0016c-.0125-.0401-.0477-.0518-.0967-.0368l-.0506.0154.0376.123.0498-.015Z" fill="#222221"/>
        <path d="M48.751,48.6039l.1664-.0947.4995.3858-.1821.1036-.0652-.0522-.1757.1.0122.0821-.1794.102-.0757-.6266ZM49.0603,48.8508l-.1154-.0959.0235.1482.0919-.0523Z" fill="#222221"/>
        <path d="M49.3137,48.2472l.2064-.1927c.0749-.07.1401-.0955.1972-.0935.0493.0012.0914.0206.1323.0639l.0012.0012c.0571.0616.0652.1344.0373.2069l.2323.0518-.1611.1506-.1927-.0466-.0008.0013-.0291.0271.1125.1206-.1413.132-.3942-.4226ZM49.7035,48.2593c.0336-.0316.0405-.066.0162-.0919l-.0012-.0008c-.0255-.0275-.0591-.021-.0915.0097l-.0615.0575.0769.0826.0611-.0571Z" fill="#222221"/>
        <rect x="50.0863" y="47.4497" width=".1931" height=".578" transform="translate(-17.9823 60.0192) rotate(-53.7828)" fill="#222221"/>
        <path d="M50.5938,47.4975l-.0656-.1466c.0704-.0356.1198-.0914.1494-.1521.0154-.0312.0137-.0486-.0004-.0555l-.0016-.0008c-.0146-.0073-.0308.0053-.0693.0554-.0805.1049-.1635.1911-.2736.1377l-.0012-.0008c-.0988-.0478-.138-.1624-.068-.3056.0486-.1004.1085-.1632.1854-.2l.0761.1417c-.0595.0315-.1036.0825-.1271.1311-.0126.0259-.0097.0421.0032.0482l.0012.0008c.0142.0069.03-.0028.0672-.053.0891-.121.1708-.1911.2757-.1401l.0016.0008c.1089.0526.1324.1753.0644.3149-.0514.1053-.1275.1858-.2174.2239" fill="#222221"/>
        <rect x="52.8509" y="44.1962" width=".5598" height="2.5452" fill="#222221"/>
        <path d="M55.5312,44.1961h-1.0398v2.5452h.5598v-.7634h.4254c.5707,0,1.0289-.3093,1.0289-.8982,0-.5201-.3671-.8836-.9743-.8836M55.4948,45.4796h-.4436v-.778h.4327c.2801,0,.4545.138.4545.389,0,.2182-.1639.389-.4436.389" fill="#222221"/>
        <path d="M59.3679,44.1961h-1.0398v2.5452h.5598v-.7634h.4254c.5707,0,1.0289-.3093,1.0289-.8982,0-.5201-.3671-.8836-.9743-.8836M59.3315,45.4796h-.4436v-.778h.4327c.2801,0,.4545.138.4545.389,0,.2182-.1639.389-.4436.389" fill="#222221"/>
        <path d="M61.7388,44.1778h.5161l1.0909,2.5635h-.5853l-.2332-.5707h-1.0759l-.2327.5707h-.5708l1.0909-2.5635ZM62.3278,45.6759l-.3385-.8253-.3379.8253h.6764Z" fill="#222221"/>
        <path d="M64.0478,44.1961h1.1634c.3238,0,.5744.0911.7415.2583.1421.1417.2182.3416.2182.5817v.0072c0,.4109-.2218.6691-.5452.7893l.6217.9088h-.6545l-.5453-.8149h-.4399v.8149h-.5599v-2.5453ZM65.1748,45.4323c.2728,0,.429-.1453.429-.3598v-.0073c0-.2401-.1672-.3639-.44-.3639h-.5561v.731h.5671Z" fill="#222221"/>
        <rect x="67.1213" y="44.1962" width=".5598" height="2.5452" fill="#222221"/>
        <path d="M69.714,45.2177c-.44-.1125-.5493-.1708-.5493-.3379,0-.1235.113-.2255.3275-.2255s.4364.0947.6614.251l.2914-.4218c-.2586-.2073-.5747-.3238-.9455-.3238-.5197,0-.8909.3092-.8909.7711,0,.5051.3311.6504.8435.7816.4255.1093.5125.1854.5125.3274,0,.1486-.1381.2433-.3672.2433-.2906,0-.5306-.1198-.7597-.3088l-.3311.3959c.3056.2728.6946.4075,1.0799.4075.5493,0,.9346-.2873.9346-.7929,0-.4432-.291-.6327-.8071-.7671" fill="#222221"/>
        <rect x="42.9918" y="39.1511" width="27.4353" height=".2368" fill="#222221"/>
        <rect x="42.0086" y="7.0863" width="29.3689" height="29.3374" fill="#fff"/>
        <rect x="42.9691" y="8.0469" width="27.4475" height="18.8888" fill="#222221"/>
        <path d="M70.3926,35.4648l-.011-7.2563h-1.2305c-.1279.1708-.0417.9402-.4311,1.0872-1.3183-.2955-.117-.4453-.5695-1.0872-.0567.0032-.5942-.0005-.6513,0,.0615.0085.2915.2663-.0526.5618-.4618,3.0415.387,4.2813-.0425,6.6925l2.9885.002Z" fill="#ab1e49"/>
        <path d="M50.7641,30.4555c.4938-.2327.4974-.7484.5205-1.0868-.1497-.1676-.735-.1781-.9698-.1352-.325.272-.0429.7578-.2368,1.0735.1279.2732.4716.0822.6861.1485" fill="#ab1e49"/>
        <path d="M53.5848,34.0557l.1461.0421c.1344.0271.3153.0328.4558-.0263-.0369-.0971-.0862-.1894-.1461-.2639-.1603.0765-.3125.1574-.4558.2481" fill="#ab1e49"/>
        <path d="M55.4112,32.1661c-.3473.0122-.6468.5137-.9448.3052.1745-.4881.5586-.8889.7214-1.3645.2857-.6484.7516-2.0615.5529-2.903h-1.3342c-.4343.1226-.1129,1.2455-.5622,1.3191-.1231-.3068-.0866-.6727-.4396-1.311h-.7209c.055.4808-.019.5043-.0579.5525-.2473.0133-.223-.3765-.5339-.1696-.2728-.0494-.3465.3906-.6335.3056-.0975-.2332-.3723-.5359-.6715-.355.2607.5626,1.5661.7938.946,1.7187-.1259.2688-.0255.6581-.3599.7937-.5861-.159-1.1317-.3784-1.7162-.5249.0623.2193-.0996.5249-.0385.7447.623.0838.8096.7306,1.3423.9258.1133.0854.1627.1821.1388.3173-.3744.1591-.7723-.1708-1.1192-.3173-.0878.0356-.0401.1222-.051.1821.323.3793,1.3669.219,1.0314,1.0107-.2858.6477-.2231,1.7203-1.2042,1.8074-.0887.1942.1473.1797.2238.2663.8431.0854,1.7151-.7205,2.4226-.049.236,0,.5351-.1481.7221.0441h2.1194c.3995-.7719.0907-1.2657.1283-1.9732.047-.1793-.4958-.3619-.9063-.2635-.0736-.0494-.025-.1474-.036-.2316.2724-.3169,1.3665.1575,1.1176-.6112,0-.0599,0-.2072-.1368-.2194M50.9234,31.3736h-.1858c-.261-.096-.8338-.2303-.8573-.5343.3611.0959.6829.2785,1.0431.4011v.1332ZM53.342,29.1109l-.0604.7617c-.0299.1199-.1214.3579-.3355.268-.2595.0611-.1235-.2546-.153-.3711.2287-.1948.291-.6145.5489-.6586M53.348,31.3262c-.2121.1461-.5707.0959-.8087.0474.0619-.096.0761-.2077.0866-.3158.1514-.1226.3121-.3898.5857-.3056.1114.1575.1615.3546.1364.574M52.3531,29.2044c.0255-.2793.3607-.17.5473-.2558l.0376.121c-.1748.1348-.2991.4278-.5849.3169v-.1821ZM52.3163,32.2523c.3351.0733.6974-.1817.9435.085-.1109.2328-.1109.621-.4966.402-.1725-.1348-.5599-.0741-.5328-.402l.0859-.085ZM51.907,28.9854c.0604-.0971.1486-.2813.3234-.221-.0149.1457-.0886.4161-.3234.3052v-.0842ZM51.6455,31.9014c.2154-.1251.5149-.1053.4651.3092h-.3481c-.0671-.0837-.1679-.1667-.117-.3092M50.8214,31.7439c.0656-.1096.1955-.0449.2894-.0623.0345.268.4522-.0636.2911.2866h-.047c-.1773.0923-.4679,0-.5335-.2243M51.3217,34.764c-.31-.5355.0514-1.4281.1368-1.9389.0733-.0729.1486-.172.2745-.1328.0862.2797-.3247.4619-.0498.7039.2842-.0837.6574.1717.9427-.0473-.1489-.2433-.4594-.1206-.6703-.219v-.1332l.6351-.0384c.0992.1348.5485.2623.4493.5189-.423.597-1.1463.9455-1.7183,1.2868M54.1867,34.0714c.117.2922.1308.6533-.0093.8816l-1.4406.0502v-.1846c.253-.3323.5327-.5679.848-.763l-.2894-.0813c-.4112-.2814.5566-.6845.7068-.7946l.3889.6229c-.0117.1405-.0955.2227-.2044.2688M53.6233,30.7729c-.2979-.791.778-1.1132,1.1929-1.5956l.5565.31c-.0607.5404-1.0467.64-.9868,1.2253.1032.0874.1931.2343.327.2627.0466.1457-.0748.2343-.1635.3226-.4327.1744-.6553-.2494-.9261-.525" fill="#ab1e49"/>
        <path d="M45.053,28.9909c-1.3289-.0854-2.0413.051-2.0595.0462v1.0528h.2482c.2995.0898.5031.0955.8034.0955,1.1148.1138,2.0535-.0494,3.1601-.1097-.1255-.0372-.2514-.0676-.3655-.0603-.1878-.1417-.3064-.2335-.2619-.4582.2935-.3129.8306-.0546,1.1747-.2408.3039.1169.1008.448.1732.6533-.0299.0578-.0635.053-.0987.085.3387-.0025.6994.0081,1.0884.0441v-1.0909c-1.645-.106-2.8055.0474-3.8624-.017" fill="#ab1e49"/>
        <path d="M57.5215,28.6218c.5351.1332,1.0973.1972,1.6661.2202v-.6338h-2.3793c-.0028.5019-.3842,1.205-.3842,1.205.2093-.0021.4121.0121.5963.0996v.1331c-.1943-.0482-.3934-.0728-.5963-.0846v2.0587h.2628c.0153.0486.0623.0745.0522.134l-.0522.0984h-.2628v.2505c.0887.0049.183.0292.2628.0061.0048.0109.0089.0231.0174.0332.1234.0227.2108.1866.3647.1004v.1327h-.2769c-.053,0-.1202-.0153-.1619-.0647-.0648.0259-.1352.0368-.2061.0267v.1894c.2093-.0777.4821.0105.6825.0202.0231.0498.0696.0749.0542.1357l-.0542.0963c-.2085-.0757-.4655-.0356-.6825-.0579v1.5932c.0749.0142.1502.0352.2093.0494.0219.0607.0846.0971.0846.1696-.0805.0485-.187.0603-.2939.0393v.8904h2.7635v-.8904c-.1061.021-.3684.0327-.4493-.0146,0-.0741.2756-.6327.3513-.6469l.098-1.19c-.2174.0223-.472-.0178-.6813.0579l-.0538-.0963c-.0142-.0608.0324-.0859.0538-.1357.2024-.0097.4752-.0979.6813-.0202v-.1894c-.1138.0142-.2336-.0158-.315-.0947-.0085-.0624.0385-.0862.0547-.1336.0789.0231.1732-.0012.2603-.0061v-.2505h-.2603l-.0547-.0984c-.0085-.0595.0385-.0854.0547-.134h.2603v-2.0587c-.2004.0118-.4028.0364-.5951.0846v-.1331c.1842-.0875.389-.1017.5951-.0996v-.4056c-.4914-.0271-.9792-.0785-1.4415-.1174-.1169-.0619-.2869-.0482-.3663-.1708.0312-.0846.087-.0976.1417-.0976M59.0078,30.1442v.4108c-.1914-.0218-.4221.0632-.5885-.0659.0826-.2983.3971-.2797.5885-.3449M56.7666,29.8641h.3643v.1328h-.3643v-.1328ZM57.3527,30.3968c-.1481.1157-.355.1692-.5258.189l-.1036-.3432c.1963-.017.5549-.1142.6294.1542M56.5415,33.3893h.4744v.1332h-.4744v-.1332ZM58.6164,35.0412c-.1639.3829-.4667.1044-.676,0-.1728-.07-.3112.4359-.4736.07-.0076-.0882.0389-.123.0547-.1927.3801-.2614.7755-.0514,1.0949.1227M58.227,31.9078h-.6925v-.255h.6925v.255ZM58.0922,32.8809v.3724c-.1198-.0199-.2784.0619-.3683-.062.0243-.2881.2485-.2679.3683-.3104M57.8538,29.9155c.0992.0729.3097.0789.2008.353-.1247.1113-.2178-.1785-.3344-.2142l.1336-.1388ZM57.836,29.3929l-.2016.2263c-.0789,0-.2206-.2417-.2432-.3388.0631-.0729.4128.0275.4448.1125M58.2003,33.7738v.3214c-.427.1478-.8233.6133-1.29.408v-.291c.187-.0874.4035.1753.561-.2336.2558.0304.4655-.3477.729-.2048M57.411,31.1812c-.2392.0611-.544.1097-.7618-.0344.1097-.2457.3748-.0991.559-.1364.0635.0858.1951-.0117.2028.1708" fill="#ab1e49"/>
        <path d="M45.2743,28.6555c1.1739,0,2.4635-.1064,3.6539-.0149v-.4473h-5.9465c-.0065.1858,0,.4764,0,.4764.7439-.1226,1.6693-.0142,2.2926-.0142" fill="#ab1e49"/>
        <path d="M44.3616,30.8143c-.3332,0-.695-.325-1.0286-.433h-.1667l-.1672.0368-.0073,5.0447h5.9437v-5.103c-1.5507-.1785-2.9034.5723-4.5739.4545" fill="#ab1e49"/>
        <path d="M66.7191,32.0707c-.3473-.8428.4449-3.647-.8359-3.8773-.14-.0203-.2578.0388-.3687.1311.2238.1595.393.3979.4307.6687-.2992.6586-.9193-.1461-1.3427.0741v.5355c-.1748.1457-.2991.3412-.546.2679-.1506-.1712-.3497-.2922-.2753-.5347.1514-.3169.4975-.1951.7218-.3428-.0057-.0077-.0098-.015-.0138-.0227-.425-.1036-.3692-.7666-1.0881-.7666h-1.3721c-.6372.1963-1.4216.5602-2.1555.0044l.1385.9047.0906.3092-.0024.27.3234.2818-.3363.2869.1145.6967c.2538.0752.527.0878.5392.3201-.0466.3797-.3316.8157-.3417,1.2083-.017.4861.253,2.4922.2453,2.9767.2623-.0239,1.5171-.0745,1.7738-.2048.0012.0097.3493.1947.3493.2048.4456.0433,1.0285.1538.8832-.6193l-.3226-2.0558c-.3825-1.0529.3226-1.3152.5586-1.3273l.1854.1688c-.0652.2092-.0996.4096-.1178.6039.0465.0785.085.1619.0599.2939.0154.1238-.0174.1967-.064.2469.0741.9541.5303,1.7847.5388,2.6962l1.2018-.0073.4371-.34-.0914-.8468.051-.7982-.0276-1.4859c.1846.0425.3663.0943.5728.1744l.0862-.0955ZM60.7539,29.7275c-.2392-.2045-.3865-.44-.327-.7614.1501-.3514.6553-.2344.8642-.0871.1603.2348.4481.5133.0068.6364.0438.5666-.3679.4772-.544.2121M62.1014,34.4164v-.4526l-.3424-.3238-.1445-.4857c-.168-.742.0242-1.6038.1583-1.8834-.0061.0052-.0069.0068-.013.0089-.1247-.0373-.3234.0732-.3987-.0842.1129-.1838-.0482-.4651.138-.6218.136-.0255.474-.0186.561.0786-.0093.151-.0153.3667-.153.5181.1429-.0296.2996-.0045.4109.1072-.0356,1.42.1016,2.3801.2173,3.6827l-.4339-.544ZM62.93,29.523c.0741.2935-.3291.3457-.4809.3623-.1684-.0899-.3825-.4181-.27-.6934.113-.1117.2061-.2574.4129-.2011.1105.1817.4307.2744.338.5322M63.659,30.5483c-.0514.2077-.3101.4502-.6331.3886-.1623-.1226-.108-.3554-.1457-.5254.0377-.1218.3955-.219.5456-.1817.0624.0846.2818.1967.2332.3185M64.1629,30.9309c.0745-.0988.3364-.2372.4753-.2134.1481.0608.2481.3425.1866.5376-.0134.1582-.1866.1206-.3117.1206-.1745-.0607-.4004-.2384-.3502-.4448M65.051,34.184c-.1477.1664-.1064.9124-.4643.5254-.3821-1.0038.1348-1.6952.2215-2.5877.2226-.2433.4683-.3331.6079-.2712.0344.0073.221.4546.2526.461.0421.6145-.3303.6448.0291,1.6629-.0971.1663-.5343.0813-.6468.2096M65.8922,31.5348c-.1357-.0122-.4417-.0421-.4676-.2372-.0315-.2121-.0433-.5076.4287-.421.3505.0903.4906.5756.0389.6582" fill="#ab1e49"/>
        <path d="M58.8554,20.3887c.1777-.0098.5983-.0146.8529.0052.4675.0344.6691.3004.6691.6355,0,.438-.3433.7484-.9358.7974-.2012.0146-.438.0146-.5862,0v-1.4381ZM58.8554,22.0203c.1482,0,.5331.0348.7995-.0097.8346-.1392,1.2645-.4104,1.2645-1.0063s-.3773-.8079-1.5252-.8079h-1.0565v3.3698c.0826-.0049.1708-.0122.2587-.0122.0825,0,.1651.0073.259.0122v-1.5459Z" fill="#c5c5c5"/>
        <path d="M62.5558,22.4553c0,.138.0064.223-.0126.361-.0445.3077-.287.6477-.6881.6687-.3376.0211-.4971-.2441-.4712-.4886.0571-.5464.2676-.4772.9169-.6792l.255-.0797v.2178ZM62.5558,22.1209l-.0956.0373c-.2165.0849-.21.0744-.6051.159-.4647.1012-.9427.1595-.9682.6902-.0126.3343.3376.5889.7326.6104.3886.021.7772-.149.9047-.4724v.4084h.7767v-.0898h-.2675v-1.4811c0-.3926-.07-.759-.9107-.7962-.2292-.0105-.2866.0105-.4522.032-.1911.0263-.3696.085-.4971.1323v.7116h.115l.1401-.2975c.121-.2546.229-.5306.6431-.4934s.4842.2651.4842.5096v.3396Z" fill="#c5c5c5"/>
        <path d="M64.7558,23.5539h-1.1528v-.0899h.2866v-2.1234h-.2991v-.0956h.7452v.4829c.0315-.1748.2991-.4986.7197-.4986.1206,0,.229.0263.3501.0793v.8387h-.1211l-.153-.3874c-.108-.2708-.1906-.4456-.3562-.3659-.4335.2069-.395.7055-.395,1.1726v.8974h.3756v.0899Z" fill="#c5c5c5"/>
        <path d="M65.7268,23.5538v-.0899h.2927v-2.1234h-.2741v-.0956h.7711v2.219h.2611v.0899h-1.0508ZM66.5291,20.709c0,.1486-.1466.255-.3121.255-.1591,0-.3056-.117-.3056-.2497,0-.1328.14-.2603.2991-.2603.172,0,.3186.117.3186.255" fill="#c5c5c5"/>
        <path d="M68.6783,21.7864c-.1211-.3606-.2421-.5043-.5732-.5043-.2866,0-.6501.0955-.6752.3878-.0194.2598.3056.3659.5987.4456.4966.1433,1.0763.2919,1.0577.7537-.013.4404-.4526.7642-1.0513.7537-.344-.0053-.7326-.117-.8662-.1963v-.759h.1146l.1336.3821c.1465.4299.3124.4352.5735.4562.3627.032.7768-.1166.8088-.4137.0445-.3663-.5412-.4618-.9108-.5735-.261-.0794-.7707-.2227-.7707-.6582,0-.5092.6622-.6792,1.0128-.6792.2926,0,.6302.0955.7513.1595v.695h-.1211l-.0825-.2494Z" fill="#c5c5c5"/>
        <path d="M47.0597,16.0956h-1.0775v3.0775c0,.1388-.1142.2449-.2449.2449h-.1146c-.1384,0-.2449-.1061-.2449-.2449v-3.0775h-1.069c-.1392,0-.2534-.0899-.2534-.2287v-.0899c0-.1388.1142-.2283.2449-.2283h2.7513c.1388,0,.253.0895.253.2283v.0899c0,.1388-.1142.2287-.2449.2287" fill="#fff"/>
        <path d="M50.5455,19.4181h-2.5145c-.1303,0-.2287-.0979-.2287-.2287v-3.4122c0-.1389.1065-.2287.2368-.2287h2.3918c.1393,0,.2449.0898.2449.2287v.0898c0,.1389-.1056.2287-.2449.2287h-2.0243v1.1265h1.8612c.1388,0,.2449.0895.2449.2287v.0895c0,.1388-.1061.2287-.2449.2287h-1.8612v1.1022h2.1389c.1388,0,.2449.0894.2449.2283v.0898c0,.1389-.1061.2287-.2449.2287" fill="#fff"/>
        <path d="M53.9496,19.4181h-2.5388v-3.6243c0-.1393.1061-.2453.2445-.2453h.1146c.1307,0,.2448.106.2448.2453v3.0775h1.9349c.1388,0,.2449.0894.2449.2283v.0898c0,.1389-.1061.2287-.2449.2287" fill="#fff"/>
        <path d="M57.3374,19.4181h-2.5145c-.1304,0-.2283-.0979-.2283-.2287v-3.4122c0-.1389.106-.2287.2364-.2287h2.3918c.1388,0,.2453.0898.2453.2287v.0898c0,.1389-.1065.2287-.2453.2287h-2.0243v1.1265h1.8612c.1388,0,.2449.0895.2449.2287v.0895c0,.1388-.1061.2287-.2449.2287h-1.8612v1.1022h2.1389c.1388,0,.2448.0894.2448.2283v.0898c0,.1389-.106.2287-.2448.2287" fill="#fff"/>
        <path d="M60.7005,19.4181h-1.5997c-.5064,0-.8982-.4327-.8982-.9305v-2.0328c0-.4979.4246-.9063.9306-.9063h1.4697c.1384,0,.2449.0898.2449.2287v.0898c0,.1389-.1065.2287-.2449.2287h-1.2572c-.3923,0-.5388.2283-.5388.5303v1.7389c0,.3837.2445.5064.5469.5064h1.3467c.1388,0,.2448.0894.2448.2283v.0898c0,.1389-.106.2287-.2448.2287" fill="#fff"/>
        <path d="M63.7619,19.4181h-1.3309c-.506,0-.9059-.4161-.9059-.914v-2.0574c0-.4979.4323-.8983.9387-.8983h1.2653c.5064,0,.9386.4004.9386.8983v2.0574c0,.4979-.408.914-.9058.914M64.0638,16.5446c0-.2449-.204-.4489-.4489-.4489h-1.0366c-.2534,0-.4493.204-.4493.4489v1.8773c0,.2534.1959.4494.4408.4494h1.0451c.2449,0,.4489-.196.4489-.4494v-1.8773Z" fill="#fff"/>
        <path d="M68.7825,19.4181h-.1146c-.1303,0-.2449-.106-.2449-.2449v-2.5796l-.8164,1.1427c-.0733.0979-.1385.1797-.2607.1797h-.0822c-.1222,0-.1874-.0818-.2611-.1797l-.816-1.1427v2.5796c0,.1389-.1145.2449-.2453.2449h-.1145c-.1385,0-.2445-.106-.2445-.2449v-3.396c0-.1308.0899-.2287.2287-.2287h.1469c.1061,0,.1959.0979.253.1797l1.0941,1.543,1.1018-1.543c.0571-.0818.1389-.1797.2449-.1797h.1469c.1389,0,.2287.0979.2287.2287v3.396c0,.1389-.106.2449-.2448.2449" fill="#fff"/>
      </g>
    </g>
  </g>
</svg>